<?xml version="1.0" encoding="UTF-8"?>
<!DOCTYPE svg PUBLIC "-//W3C//DTD SVG 1.1//EN" "http://www.w3.org/Graphics/SVG/1.1/DTD/svg11.dtd">
<svg xmlns="http://www.w3.org/2000/svg" version="1.1" width="512px" height="512px" style="shape-rendering:geometricPrecision; text-rendering:geometricPrecision; image-rendering:optimizeQuality; fill-rule:evenodd; clip-rule:evenodd" xmlns:xlink="http://www.w3.org/1999/xlink">
<g><path style="opacity:1" fill="#5c892a" d="M 234.5,48.5 C 237.518,48.3354 240.518,48.502 243.5,49C 296.874,77.9285 353.874,94.5951 414.5,99C 420,100.5 423.5,104 425,109.5C 425.852,148.179 425.519,186.846 424,225.5C 422.651,245.954 418.984,265.954 413,285.5C 408.886,278.263 403.219,272.597 396,268.5C 397.323,257.215 398.656,245.881 400,234.5C 402.342,197.868 403.009,161.202 402,124.5C 401.5,122.667 400.333,121.5 398.5,121C 342.193,115.451 289.026,99.6174 239,73.5C 188.547,99.4268 135.047,115.26 78.5,121C 77.5838,121.374 76.7504,121.874 76,122.5C 75.3333,152.5 75.3333,182.5 76,212.5C 82.9022,322.18 137.069,397.513 238.5,438.5C 249.31,435.095 259.644,430.595 269.5,425C 270.784,424.316 271.951,424.483 273,425.5C 274.568,430.875 276.901,435.875 280,440.5C 280.667,442.167 280.667,443.833 280,445.5C 267.152,453.097 253.485,458.43 239,461.5C 233.611,461.372 228.445,460.205 223.5,458C 118.19,412.942 61.3564,333.109 53,218.5C 52.3333,181.5 52.3333,144.5 53,107.5C 54.8186,102.664 58.3186,99.831 63.5,99C 124.38,94.7038 181.38,77.8705 234.5,48.5 Z"/></g>
<g><path style="opacity:1" fill="#ec3e3d" d="M 213.5,138.5 C 230.837,138.333 248.17,138.5 265.5,139C 270.598,140.433 274.098,143.6 276,148.5C 276.5,166.164 276.667,183.83 276.5,201.5C 294.17,201.333 311.836,201.5 329.5,202C 336.132,202.636 340.298,206.136 342,212.5C 342.667,230.5 342.667,248.5 342,266.5C 340.711,273.455 336.545,277.289 329.5,278C 311.836,278.5 294.17,278.667 276.5,278.5C 276.667,296.17 276.5,313.836 276,331.5C 273.96,336.876 270.127,340.043 264.5,341C 247.167,341.667 229.833,341.667 212.5,341C 205.964,339.797 202.13,335.964 201,329.5C 200.5,312.503 200.333,295.503 200.5,278.5C 182.83,278.667 165.164,278.5 147.5,278C 142.263,277.1 138.429,274.266 136,269.5C 135.333,249.833 135.333,230.167 136,210.5C 138.558,205.271 142.725,202.438 148.5,202C 165.83,201.5 183.163,201.333 200.5,201.5C 200.333,184.497 200.5,167.497 201,150.5C 202.427,143.572 206.593,139.572 213.5,138.5 Z"/></g>
<g><path style="opacity:1" fill="#f29c05" d="M 373.5,280.5 C 382.673,279.414 390.506,282.08 397,288.5C 418.081,325.663 439.414,362.663 461,399.5C 467.032,407.964 469.032,417.297 467,427.5C 463.876,436.956 457.376,442.456 447.5,444C 401.833,444.667 356.167,444.667 310.5,444C 294.181,440.869 287.015,431.036 289,414.5C 290.109,410.281 291.775,406.281 294,402.5C 315,365.833 336,329.167 357,292.5C 360.75,285.893 366.25,281.893 373.5,280.5 Z M 374.5,326.5 C 384.682,325.523 390.682,330.023 392.5,340C 391.1,354.164 389.6,368.33 388,382.5C 385.163,389.169 380.329,391.336 373.5,389C 371.622,387.457 370.122,385.624 369,383.5C 367.467,369 365.967,354.5 364.5,340C 365.397,333.615 368.73,329.115 374.5,326.5 Z M 375.5,398.5 C 388.73,399.531 393.23,406.198 389,418.5C 382,426.5 375,426.5 368,418.5C 363.686,409.275 366.186,402.608 375.5,398.5 Z"/></g>
</svg>
